<svg id="Layer_1" data-name="Layer 1" xmlns="http://www.w3.org/2000/svg" viewBox="0 0 1242 2208">
  <defs>
    <style>
      .cls-1 {
        fill: #fff;
      }
    </style>
  </defs>
  <rect x="253.81" y="0.3" width="63.08" height="63.08"/>
  <rect class="cls-1" x="317.39" y="0.3" width="63.08" height="63.08"/>
  <rect x="381.47" y="0.3" width="63.08" height="63.08"/>
  <rect class="cls-1" x="444.54" y="0.3" width="63.08" height="63.08"/>
  <rect x="507.62" y="0.3" width="63.08" height="63.08"/>
  <rect class="cls-1" x="253.81" y="63.38" width="63.08" height="63.08"/>
  <rect x="317.39" y="63.38" width="63.08" height="63.08"/>
  <rect class="cls-1" x="381.47" y="63.38" width="63.08" height="63.08"/>
  <rect x="444.54" y="63.38" width="63.08" height="63.08"/>
  <rect class="cls-1" x="507.62" y="63.38" width="63.08" height="63.08"/>
  <rect x="253.81" y="126.45" width="63.08" height="63.08"/>
  <rect class="cls-1" x="317.39" y="126.45" width="63.08" height="63.08"/>
  <rect x="381.47" y="126.45" width="63.08" height="63.08"/>
  <rect class="cls-1" x="444.54" y="126.45" width="63.08" height="63.08"/>
  <rect x="507.62" y="126.45" width="63.08" height="63.08"/>
  <rect class="cls-1" x="253.81" y="189.53" width="63.08" height="63.08"/>
  <rect x="317.39" y="189.53" width="63.08" height="63.08"/>
  <rect class="cls-1" x="381.47" y="189.53" width="63.08" height="63.08"/>
  <rect x="444.54" y="189.53" width="63.08" height="63.08"/>
  <rect class="cls-1" x="507.62" y="189.53" width="63.08" height="63.08"/>
  <rect x="253.81" y="252.61" width="63.08" height="63.08"/>
  <rect class="cls-1" x="317.39" y="252.61" width="63.08" height="63.08"/>
  <rect x="381.47" y="252.61" width="63.08" height="63.08"/>
  <rect class="cls-1" x="444.54" y="252.61" width="63.08" height="63.08"/>
  <rect x="507.62" y="252.61" width="63.08" height="63.08"/>
  <rect class="cls-1" x="253.81" y="315.69" width="63.08" height="63.08"/>
  <rect x="317.39" y="315.69" width="63.08" height="63.08"/>
  <rect class="cls-1" x="381.47" y="315.69" width="63.08" height="63.08"/>
  <rect x="444.54" y="315.69" width="63.08" height="63.08"/>
  <rect class="cls-1" x="507.62" y="315.69" width="63.08" height="63.08"/>
  <rect x="253.81" y="378.76" width="63.08" height="63.08"/>
  <rect class="cls-1" x="317.39" y="378.76" width="63.08" height="63.08"/>
  <rect x="381.47" y="378.76" width="63.08" height="63.08"/>
  <rect class="cls-1" x="444.54" y="378.76" width="63.08" height="63.08"/>
  <rect x="507.62" y="378.76" width="63.08" height="63.08"/>
  <rect class="cls-1" x="253.81" y="441.84" width="63.08" height="63.08"/>
  <rect x="317.39" y="441.84" width="63.08" height="63.08"/>
  <rect class="cls-1" x="381.47" y="441.84" width="63.08" height="63.08"/>
  <rect x="444.54" y="441.84" width="63.08" height="63.08"/>
  <rect class="cls-1" x="507.62" y="441.84" width="63.08" height="63.08"/>
  <rect x="253.81" y="504.92" width="63.08" height="63.08"/>
  <rect class="cls-1" x="317.39" y="504.92" width="63.08" height="63.08"/>
  <rect x="381.47" y="504.92" width="63.08" height="63.08"/>
  <rect class="cls-1" x="444.54" y="504.92" width="63.08" height="63.08"/>
  <rect x="507.62" y="504.92" width="63.08" height="63.08"/>
  <rect class="cls-1" x="253.81" y="567.99" width="63.08" height="63.08"/>
  <rect x="317.39" y="567.99" width="63.08" height="63.08"/>
  <rect class="cls-1" x="381.47" y="567.99" width="63.08" height="63.08"/>
  <rect x="444.54" y="567.99" width="63.08" height="63.08"/>
  <rect class="cls-1" x="507.62" y="567.99" width="63.08" height="63.08"/>
  <rect x="253.81" y="631.07" width="63.08" height="63.08"/>
  <rect class="cls-1" x="317.39" y="631.07" width="63.08" height="63.08"/>
  <rect x="381.47" y="631.07" width="63.08" height="63.08"/>
  <rect class="cls-1" x="444.54" y="631.07" width="63.08" height="63.08"/>
  <rect x="507.62" y="631.07" width="63.08" height="63.08"/>
  <rect class="cls-1" x="253.81" y="694.15" width="63.08" height="63.08"/>
  <rect x="317.39" y="694.15" width="63.08" height="63.08"/>
  <rect class="cls-1" x="381.47" y="694.15" width="63.08" height="63.08"/>
  <rect x="444.54" y="694.15" width="63.08" height="63.08"/>
  <rect class="cls-1" x="507.62" y="694.15" width="63.08" height="63.08"/>
  <rect x="253.81" y="757.23" width="63.08" height="63.08"/>
  <rect class="cls-1" x="317.39" y="757.23" width="63.08" height="63.08"/>
  <rect x="381.47" y="757.23" width="63.08" height="63.08"/>
  <rect class="cls-1" x="444.54" y="757.23" width="63.08" height="63.08"/>
  <rect x="507.62" y="757.23" width="63.08" height="63.08"/>
  <rect class="cls-1" x="253.81" y="820.3" width="63.08" height="63.08"/>
  <rect x="317.39" y="820.3" width="63.08" height="63.08"/>
  <rect class="cls-1" x="381.47" y="820.3" width="63.08" height="63.08"/>
  <rect x="444.54" y="820.3" width="63.08" height="63.08"/>
  <rect class="cls-1" x="507.62" y="820.3" width="63.08" height="63.08"/>
  <rect x="253.81" y="883.38" width="63.08" height="63.08"/>
  <rect class="cls-1" x="317.39" y="883.38" width="63.08" height="63.08"/>
  <rect x="381.47" y="883.38" width="63.08" height="63.08"/>
  <rect class="cls-1" x="444.54" y="883.38" width="63.08" height="63.08"/>
  <rect x="507.62" y="883.38" width="63.08" height="63.08"/>
  <rect class="cls-1" x="253.81" y="946.46" width="63.08" height="63.08"/>
  <rect x="317.39" y="946.46" width="63.08" height="63.08"/>
  <rect class="cls-1" x="381.47" y="946.46" width="63.08" height="63.08"/>
  <rect x="444.54" y="946.46" width="63.08" height="63.08"/>
  <rect class="cls-1" x="507.62" y="946.46" width="63.08" height="63.08"/>
  <rect x="253.81" y="1009.53" width="63.08" height="63.08"/>
  <rect class="cls-1" x="317.39" y="1009.53" width="63.08" height="63.08"/>
  <rect x="381.47" y="1009.53" width="63.08" height="63.08"/>
  <rect class="cls-1" x="444.54" y="1009.53" width="63.08" height="63.08"/>
  <rect x="-0.5" y="0.3" width="63.08" height="63.08"/>
  <rect class="cls-1" x="63.08" y="0.3" width="63.08" height="63.08"/>
  <rect x="127.16" y="0.3" width="63.08" height="63.08"/>
  <rect class="cls-1" x="190.23" y="0.3" width="63.08" height="63.08"/>
  <rect class="cls-1" x="-0.5" y="63.38" width="63.08" height="63.08"/>
  <rect x="63.08" y="63.38" width="63.08" height="63.08"/>
  <rect class="cls-1" x="127.16" y="63.38" width="63.08" height="63.08"/>
  <rect x="190.23" y="63.38" width="63.08" height="63.08"/>
  <rect x="-0.5" y="126.45" width="63.08" height="63.08"/>
  <rect class="cls-1" x="63.08" y="126.45" width="63.08" height="63.08"/>
  <rect x="127.16" y="126.45" width="63.08" height="63.08"/>
  <rect class="cls-1" x="190.23" y="126.45" width="63.08" height="63.08"/>
  <rect class="cls-1" x="-0.5" y="189.53" width="63.08" height="63.08"/>
  <rect x="63.08" y="189.53" width="63.08" height="63.08"/>
  <rect class="cls-1" x="127.16" y="189.53" width="63.08" height="63.08"/>
  <rect x="190.23" y="189.53" width="63.08" height="63.08"/>
  <rect x="-0.5" y="252.61" width="63.08" height="63.08"/>
  <rect class="cls-1" x="63.08" y="252.61" width="63.08" height="63.08"/>
  <rect x="127.16" y="252.61" width="63.08" height="63.08"/>
  <rect class="cls-1" x="190.23" y="252.61" width="63.08" height="63.08"/>
  <rect class="cls-1" x="-0.5" y="315.69" width="63.08" height="63.08"/>
  <rect x="63.08" y="315.69" width="63.08" height="63.08"/>
  <rect class="cls-1" x="127.16" y="315.69" width="63.08" height="63.08"/>
  <rect x="190.23" y="315.69" width="63.08" height="63.08"/>
  <rect x="-0.5" y="378.76" width="63.08" height="63.08"/>
  <rect class="cls-1" x="63.08" y="378.76" width="63.08" height="63.08"/>
  <rect x="127.16" y="378.76" width="63.08" height="63.08"/>
  <rect class="cls-1" x="190.23" y="378.76" width="63.08" height="63.08"/>
  <rect class="cls-1" x="-0.5" y="441.84" width="63.08" height="63.08"/>
  <rect x="63.08" y="441.84" width="63.08" height="63.08"/>
  <rect class="cls-1" x="127.16" y="441.84" width="63.08" height="63.08"/>
  <rect x="190.23" y="441.84" width="63.08" height="63.08"/>
  <rect x="-0.5" y="504.92" width="63.08" height="63.08"/>
  <rect class="cls-1" x="63.08" y="504.92" width="63.08" height="63.08"/>
  <rect x="127.16" y="504.92" width="63.08" height="63.08"/>
  <rect class="cls-1" x="190.23" y="504.92" width="63.08" height="63.08"/>
  <rect class="cls-1" x="-0.5" y="567.99" width="63.08" height="63.08"/>
  <rect x="63.08" y="567.99" width="63.08" height="63.08"/>
  <rect class="cls-1" x="127.16" y="567.99" width="63.08" height="63.08"/>
  <rect x="190.23" y="567.99" width="63.08" height="63.08"/>
  <rect x="-0.5" y="631.07" width="63.08" height="63.08"/>
  <rect class="cls-1" x="63.08" y="631.07" width="63.08" height="63.08"/>
  <rect x="127.16" y="631.07" width="63.08" height="63.08"/>
  <rect class="cls-1" x="190.23" y="631.07" width="63.08" height="63.08"/>
  <rect class="cls-1" x="-0.5" y="694.15" width="63.08" height="63.08"/>
  <rect x="63.08" y="694.15" width="63.08" height="63.08"/>
  <rect class="cls-1" x="127.16" y="694.15" width="63.08" height="63.08"/>
  <rect x="190.23" y="694.15" width="63.08" height="63.08"/>
  <rect x="-0.5" y="757.23" width="63.08" height="63.08"/>
  <rect class="cls-1" x="63.08" y="757.23" width="63.08" height="63.08"/>
  <rect x="127.16" y="757.23" width="63.08" height="63.08"/>
  <rect class="cls-1" x="190.23" y="757.23" width="63.08" height="63.08"/>
  <rect class="cls-1" x="-0.5" y="820.3" width="63.08" height="63.08"/>
  <rect x="63.08" y="820.3" width="63.08" height="63.08"/>
  <rect class="cls-1" x="127.16" y="820.3" width="63.08" height="63.08"/>
  <rect x="190.23" y="820.3" width="63.08" height="63.08"/>
  <rect x="-0.5" y="883.38" width="63.08" height="63.08"/>
  <rect class="cls-1" x="63.08" y="883.38" width="63.08" height="63.08"/>
  <rect x="127.16" y="883.38" width="63.08" height="63.08"/>
  <rect class="cls-1" x="190.23" y="883.38" width="63.08" height="63.08"/>
  <rect class="cls-1" x="-0.5" y="946.46" width="63.08" height="63.08"/>
  <rect x="63.08" y="946.46" width="63.08" height="63.08"/>
  <rect class="cls-1" x="127.16" y="946.46" width="63.08" height="63.08"/>
  <rect x="190.23" y="946.46" width="63.08" height="63.08"/>
  <rect x="-0.5" y="1009.53" width="63.08" height="63.08"/>
  <rect class="cls-1" x="63.08" y="1009.53" width="63.08" height="63.08"/>
  <rect x="127.16" y="1009.53" width="63.08" height="63.08"/>
  <rect class="cls-1" x="190.23" y="1009.53" width="63.08" height="63.08"/>
  <rect x="507.62" y="1009.53" width="63.08" height="63.08"/>
  <rect class="cls-1" x="570.7" width="63.08" height="63.08"/>
  <rect x="634.78" width="63.08" height="63.08"/>
  <rect class="cls-1" x="697.85" width="63.08" height="63.08"/>
  <rect x="760.93" width="63.08" height="63.08"/>
  <rect x="570.7" y="63.08" width="63.08" height="63.08"/>
  <rect class="cls-1" x="634.78" y="63.08" width="63.08" height="63.08"/>
  <rect x="697.85" y="63.08" width="63.08" height="63.08"/>
  <rect class="cls-1" x="760.93" y="63.08" width="63.08" height="63.08"/>
  <rect class="cls-1" x="570.7" y="126.15" width="63.08" height="63.08"/>
  <rect x="634.78" y="126.15" width="63.08" height="63.08"/>
  <rect class="cls-1" x="697.85" y="126.15" width="63.08" height="63.08"/>
  <rect x="760.93" y="126.15" width="63.08" height="63.08"/>
  <rect x="570.7" y="189.23" width="63.08" height="63.08"/>
  <rect class="cls-1" x="634.78" y="189.23" width="63.08" height="63.08"/>
  <rect x="697.85" y="189.23" width="63.08" height="63.08"/>
  <rect class="cls-1" x="760.93" y="189.23" width="63.08" height="63.08"/>
  <rect class="cls-1" x="570.7" y="252.31" width="63.08" height="63.08"/>
  <rect x="634.78" y="252.31" width="63.08" height="63.08"/>
  <rect class="cls-1" x="697.85" y="252.31" width="63.08" height="63.08"/>
  <rect x="760.93" y="252.31" width="63.08" height="63.08"/>
  <rect x="570.7" y="315.39" width="63.08" height="63.08"/>
  <rect class="cls-1" x="634.78" y="315.39" width="63.08" height="63.08"/>
  <rect x="697.85" y="315.39" width="63.08" height="63.08"/>
  <rect class="cls-1" x="760.93" y="315.39" width="63.08" height="63.08"/>
  <rect class="cls-1" x="570.7" y="378.46" width="63.08" height="63.08"/>
  <rect x="634.78" y="378.46" width="63.08" height="63.08"/>
  <rect class="cls-1" x="697.85" y="378.46" width="63.08" height="63.08"/>
  <rect x="760.93" y="378.46" width="63.08" height="63.08"/>
  <rect x="570.7" y="441.54" width="63.08" height="63.08"/>
  <rect class="cls-1" x="634.78" y="441.54" width="63.08" height="63.08"/>
  <rect x="697.85" y="441.54" width="63.08" height="63.08"/>
  <rect class="cls-1" x="760.93" y="441.54" width="63.08" height="63.08"/>
  <rect class="cls-1" x="570.7" y="504.62" width="63.08" height="63.08"/>
  <rect x="634.78" y="504.62" width="63.08" height="63.08"/>
  <rect class="cls-1" x="697.85" y="504.62" width="63.08" height="63.08"/>
  <rect x="760.93" y="504.62" width="63.08" height="63.08"/>
  <rect x="570.7" y="567.69" width="63.08" height="63.08"/>
  <rect class="cls-1" x="634.78" y="567.69" width="63.08" height="63.08"/>
  <rect x="697.85" y="567.69" width="63.08" height="63.08"/>
  <rect class="cls-1" x="760.93" y="567.69" width="63.08" height="63.08"/>
  <rect class="cls-1" x="570.7" y="630.77" width="63.08" height="63.08"/>
  <rect x="634.78" y="630.77" width="63.08" height="63.08"/>
  <rect class="cls-1" x="697.85" y="630.77" width="63.08" height="63.08"/>
  <rect x="760.93" y="630.77" width="63.08" height="63.08"/>
  <rect x="570.7" y="693.85" width="63.08" height="63.08"/>
  <rect class="cls-1" x="634.78" y="693.85" width="63.08" height="63.08"/>
  <rect x="697.85" y="693.85" width="63.08" height="63.08"/>
  <rect class="cls-1" x="760.93" y="693.85" width="63.08" height="63.08"/>
  <rect class="cls-1" x="570.7" y="756.93" width="63.08" height="63.08"/>
  <rect x="634.78" y="756.93" width="63.08" height="63.08"/>
  <rect class="cls-1" x="697.85" y="756.93" width="63.08" height="63.08"/>
  <rect x="760.93" y="756.93" width="63.08" height="63.08"/>
  <rect x="570.7" y="820" width="63.08" height="63.08"/>
  <rect class="cls-1" x="634.78" y="820" width="63.08" height="63.08"/>
  <rect x="697.85" y="820" width="63.08" height="63.08"/>
  <rect class="cls-1" x="760.93" y="820" width="63.08" height="63.08"/>
  <rect class="cls-1" x="570.7" y="883.08" width="63.08" height="63.08"/>
  <rect x="634.78" y="883.08" width="63.08" height="63.08"/>
  <rect class="cls-1" x="697.85" y="883.08" width="63.08" height="63.08"/>
  <rect x="760.93" y="883.08" width="63.08" height="63.08"/>
  <rect x="570.7" y="946.16" width="63.08" height="63.08"/>
  <rect class="cls-1" x="634.78" y="946.16" width="63.08" height="63.08"/>
  <rect x="697.85" y="946.16" width="63.08" height="63.08"/>
  <rect class="cls-1" x="760.93" y="946.16" width="63.08" height="63.08"/>
  <rect class="cls-1" x="570.7" y="1009.23" width="63.08" height="63.08"/>
  <rect x="634.78" y="1009.23" width="63.08" height="63.08"/>
  <rect class="cls-1" x="697.85" y="1009.23" width="63.08" height="63.08"/>
  <rect x="760.93" y="1009.23" width="63.08" height="63.08"/>
  <rect class="cls-1" x="824.01" width="63.08" height="63.08"/>
  <rect x="887.09" width="63.08" height="63.08"/>
  <rect x="824.01" y="63.08" width="63.08" height="63.08"/>
  <rect class="cls-1" x="887.09" y="63.08" width="63.08" height="63.08"/>
  <rect class="cls-1" x="824.01" y="126.15" width="63.08" height="63.08"/>
  <rect x="887.09" y="126.15" width="63.08" height="63.08"/>
  <rect x="824.01" y="189.23" width="63.08" height="63.08"/>
  <rect class="cls-1" x="887.09" y="189.23" width="63.08" height="63.08"/>
  <rect class="cls-1" x="824.01" y="252.31" width="63.08" height="63.08"/>
  <rect x="887.09" y="252.31" width="63.08" height="63.08"/>
  <rect x="824.01" y="315.39" width="63.08" height="63.08"/>
  <rect class="cls-1" x="887.09" y="315.39" width="63.08" height="63.08"/>
  <rect class="cls-1" x="824.01" y="378.46" width="63.08" height="63.08"/>
  <rect x="887.09" y="378.46" width="63.08" height="63.08"/>
  <rect x="824.01" y="441.54" width="63.08" height="63.08"/>
  <rect class="cls-1" x="887.09" y="441.54" width="63.08" height="63.08"/>
  <rect class="cls-1" x="824.01" y="504.62" width="63.08" height="63.08"/>
  <rect x="887.09" y="504.62" width="63.08" height="63.08"/>
  <rect x="824.01" y="567.69" width="63.08" height="63.08"/>
  <rect class="cls-1" x="887.09" y="567.69" width="63.08" height="63.08"/>
  <rect class="cls-1" x="824.01" y="630.77" width="63.08" height="63.08"/>
  <rect x="887.09" y="630.77" width="63.08" height="63.08"/>
  <rect x="824.01" y="693.85" width="63.08" height="63.08"/>
  <rect class="cls-1" x="887.09" y="693.85" width="63.08" height="63.08"/>
  <rect class="cls-1" x="824.01" y="756.93" width="63.08" height="63.08"/>
  <rect x="887.09" y="756.93" width="63.08" height="63.08"/>
  <rect x="824.01" y="820" width="63.08" height="63.08"/>
  <rect class="cls-1" x="887.09" y="820" width="63.08" height="63.08"/>
  <rect class="cls-1" x="824.01" y="883.08" width="63.08" height="63.08"/>
  <rect x="887.09" y="883.08" width="63.08" height="63.08"/>
  <rect x="824.01" y="946.16" width="63.08" height="63.08"/>
  <rect class="cls-1" x="887.09" y="946.16" width="63.08" height="63.08"/>
  <rect class="cls-1" x="824.01" y="1009.23" width="63.08" height="63.08"/>
  <rect x="887.09" y="1009.23" width="63.08" height="63.08"/>
  <rect class="cls-1" x="950.16" width="63.08" height="63.08"/>
  <rect x="1013.24" width="63.08" height="63.08"/>
  <rect x="950.16" y="63.08" width="63.08" height="63.08"/>
  <rect class="cls-1" x="1013.24" y="63.08" width="63.08" height="63.08"/>
  <rect class="cls-1" x="950.16" y="126.15" width="63.08" height="63.08"/>
  <rect x="1013.24" y="126.15" width="63.08" height="63.08"/>
  <rect x="950.16" y="189.23" width="63.08" height="63.08"/>
  <rect class="cls-1" x="1013.24" y="189.23" width="63.08" height="63.08"/>
  <rect class="cls-1" x="950.16" y="252.31" width="63.08" height="63.08"/>
  <rect x="1013.24" y="252.31" width="63.08" height="63.08"/>
  <rect x="950.16" y="315.39" width="63.08" height="63.08"/>
  <rect class="cls-1" x="1013.24" y="315.39" width="63.08" height="63.08"/>
  <rect class="cls-1" x="950.16" y="378.46" width="63.08" height="63.08"/>
  <rect x="1013.24" y="378.46" width="63.08" height="63.08"/>
  <rect x="950.16" y="441.54" width="63.08" height="63.08"/>
  <rect class="cls-1" x="1013.24" y="441.54" width="63.08" height="63.08"/>
  <rect class="cls-1" x="950.16" y="504.62" width="63.08" height="63.08"/>
  <rect x="1013.24" y="504.62" width="63.08" height="63.08"/>
  <rect x="950.16" y="567.69" width="63.08" height="63.08"/>
  <rect class="cls-1" x="1013.24" y="567.69" width="63.08" height="63.08"/>
  <rect class="cls-1" x="950.16" y="630.77" width="63.08" height="63.08"/>
  <rect x="1013.24" y="630.77" width="63.08" height="63.08"/>
  <rect x="950.16" y="693.85" width="63.08" height="63.08"/>
  <rect class="cls-1" x="1013.24" y="693.85" width="63.08" height="63.08"/>
  <rect class="cls-1" x="950.16" y="756.93" width="63.08" height="63.08"/>
  <rect x="1013.24" y="756.93" width="63.08" height="63.08"/>
  <rect x="950.16" y="820" width="63.08" height="63.08"/>
  <rect class="cls-1" x="1013.24" y="820" width="63.08" height="63.08"/>
  <rect class="cls-1" x="950.16" y="883.08" width="63.08" height="63.08"/>
  <rect x="1013.24" y="883.08" width="63.08" height="63.08"/>
  <rect x="950.16" y="946.16" width="63.08" height="63.08"/>
  <rect class="cls-1" x="1013.24" y="946.16" width="63.08" height="63.08"/>
  <rect class="cls-1" x="950.16" y="1009.23" width="63.08" height="63.08"/>
  <rect x="1013.24" y="1009.23" width="63.08" height="63.08"/>
  <rect class="cls-1" x="253.81" y="1072.61" width="63.08" height="63.08"/>
  <rect x="317.39" y="1072.61" width="63.08" height="63.08"/>
  <rect class="cls-1" x="381.47" y="1072.61" width="63.08" height="63.08"/>
  <rect x="444.54" y="1072.61" width="63.08" height="63.08"/>
  <rect class="cls-1" x="507.62" y="1072.61" width="63.08" height="63.08"/>
  <rect x="253.81" y="1135.69" width="63.08" height="63.08"/>
  <rect class="cls-1" x="317.39" y="1135.69" width="63.08" height="63.08"/>
  <rect x="381.47" y="1135.69" width="63.08" height="63.08"/>
  <rect class="cls-1" x="444.54" y="1135.69" width="63.08" height="63.08"/>
  <rect x="507.62" y="1135.69" width="63.08" height="63.08"/>
  <rect class="cls-1" x="253.81" y="1198.77" width="63.08" height="63.08"/>
  <rect x="317.39" y="1198.77" width="63.08" height="63.08"/>
  <rect class="cls-1" x="381.47" y="1198.77" width="63.08" height="63.08"/>
  <rect x="444.54" y="1198.77" width="63.08" height="63.08"/>
  <rect class="cls-1" x="507.62" y="1198.77" width="63.08" height="63.08"/>
  <rect x="253.81" y="1261.84" width="63.08" height="63.08"/>
  <rect class="cls-1" x="317.39" y="1261.84" width="63.08" height="63.08"/>
  <rect x="381.47" y="1261.84" width="63.08" height="63.08"/>
  <rect class="cls-1" x="444.54" y="1261.84" width="63.08" height="63.08"/>
  <rect x="507.62" y="1261.84" width="63.08" height="63.08"/>
  <rect class="cls-1" x="253.81" y="1324.92" width="63.08" height="63.08"/>
  <rect x="317.39" y="1324.92" width="63.08" height="63.08"/>
  <rect class="cls-1" x="381.47" y="1324.92" width="63.08" height="63.08"/>
  <rect x="444.54" y="1324.92" width="63.08" height="63.08"/>
  <rect class="cls-1" x="507.62" y="1324.92" width="63.08" height="63.08"/>
  <rect x="253.81" y="1388" width="63.08" height="63.08"/>
  <rect class="cls-1" x="317.39" y="1388" width="63.08" height="63.08"/>
  <rect x="381.47" y="1388" width="63.08" height="63.08"/>
  <rect class="cls-1" x="444.54" y="1388" width="63.08" height="63.08"/>
  <rect x="507.62" y="1388" width="63.08" height="63.08"/>
  <rect class="cls-1" x="253.81" y="1451.07" width="63.08" height="63.08"/>
  <rect x="317.39" y="1451.07" width="63.08" height="63.08"/>
  <rect class="cls-1" x="381.47" y="1451.07" width="63.08" height="63.08"/>
  <rect x="444.54" y="1451.07" width="63.08" height="63.08"/>
  <rect class="cls-1" x="507.62" y="1451.07" width="63.08" height="63.08"/>
  <rect x="253.81" y="1514.15" width="63.08" height="63.08"/>
  <rect class="cls-1" x="317.39" y="1514.15" width="63.08" height="63.08"/>
  <rect x="381.47" y="1514.15" width="63.08" height="63.08"/>
  <rect class="cls-1" x="444.54" y="1514.15" width="63.08" height="63.08"/>
  <rect x="507.62" y="1514.15" width="63.08" height="63.08"/>
  <rect class="cls-1" x="253.81" y="1577.23" width="63.08" height="63.08"/>
  <rect x="317.39" y="1577.23" width="63.08" height="63.08"/>
  <rect class="cls-1" x="381.47" y="1577.23" width="63.08" height="63.08"/>
  <rect x="444.54" y="1577.23" width="63.08" height="63.08"/>
  <rect class="cls-1" x="507.62" y="1577.23" width="63.08" height="63.08"/>
  <rect x="253.81" y="1640.31" width="63.08" height="63.08"/>
  <rect class="cls-1" x="317.39" y="1640.31" width="63.08" height="63.08"/>
  <rect x="381.47" y="1640.31" width="63.08" height="63.08"/>
  <rect class="cls-1" x="444.54" y="1640.31" width="63.08" height="63.08"/>
  <rect x="507.62" y="1640.31" width="63.08" height="63.08"/>
  <rect class="cls-1" x="253.81" y="1703.38" width="63.08" height="63.08"/>
  <rect x="317.39" y="1703.38" width="63.08" height="63.08"/>
  <rect class="cls-1" x="381.47" y="1703.38" width="63.08" height="63.08"/>
  <rect x="444.54" y="1703.38" width="63.08" height="63.08"/>
  <rect class="cls-1" x="507.62" y="1703.38" width="63.08" height="63.08"/>
  <rect x="253.81" y="1766.46" width="63.08" height="63.08"/>
  <rect class="cls-1" x="317.39" y="1766.46" width="63.08" height="63.08"/>
  <rect x="381.47" y="1766.46" width="63.08" height="63.08"/>
  <rect class="cls-1" x="444.54" y="1766.46" width="63.08" height="63.08"/>
  <rect x="507.62" y="1766.46" width="63.08" height="63.08"/>
  <rect class="cls-1" x="253.81" y="1829.54" width="63.08" height="63.08"/>
  <rect x="317.39" y="1829.54" width="63.08" height="63.08"/>
  <rect class="cls-1" x="381.47" y="1829.54" width="63.08" height="63.08"/>
  <rect x="444.54" y="1829.54" width="63.08" height="63.08"/>
  <rect class="cls-1" x="507.62" y="1829.54" width="63.08" height="63.08"/>
  <rect x="253.81" y="1892.61" width="63.08" height="63.08"/>
  <rect class="cls-1" x="317.39" y="1892.61" width="63.08" height="63.08"/>
  <rect x="381.47" y="1892.61" width="63.08" height="63.08"/>
  <rect class="cls-1" x="444.54" y="1892.61" width="63.08" height="63.08"/>
  <rect x="507.62" y="1892.61" width="63.08" height="63.08"/>
  <rect class="cls-1" x="253.81" y="1955.69" width="63.08" height="63.08"/>
  <rect x="317.39" y="1955.69" width="63.08" height="63.08"/>
  <rect class="cls-1" x="381.47" y="1955.69" width="63.08" height="63.08"/>
  <rect x="444.54" y="1955.69" width="63.08" height="63.08"/>
  <rect class="cls-1" x="507.62" y="1955.69" width="63.08" height="63.08"/>
  <rect x="253.81" y="2018.77" width="63.08" height="63.08"/>
  <rect class="cls-1" x="317.39" y="2018.77" width="63.08" height="63.08"/>
  <rect x="381.47" y="2018.77" width="63.08" height="63.08"/>
  <rect class="cls-1" x="444.54" y="2018.77" width="63.08" height="63.08"/>
  <rect class="cls-1" x="-0.5" y="1072.61" width="63.08" height="63.08"/>
  <rect x="63.08" y="1072.61" width="63.08" height="63.08"/>
  <rect class="cls-1" x="127.16" y="1072.61" width="63.08" height="63.08"/>
  <rect x="190.23" y="1072.61" width="63.08" height="63.08"/>
  <rect x="-0.5" y="1135.69" width="63.08" height="63.08"/>
  <rect class="cls-1" x="63.08" y="1135.69" width="63.08" height="63.08"/>
  <rect x="127.16" y="1135.69" width="63.08" height="63.08"/>
  <rect class="cls-1" x="190.23" y="1135.69" width="63.08" height="63.08"/>
  <rect class="cls-1" x="-0.5" y="1198.77" width="63.08" height="63.08"/>
  <rect x="63.08" y="1198.77" width="63.08" height="63.08"/>
  <rect class="cls-1" x="127.16" y="1198.77" width="63.08" height="63.08"/>
  <rect x="190.23" y="1198.77" width="63.08" height="63.08"/>
  <rect x="-0.5" y="1261.84" width="63.08" height="63.08"/>
  <rect class="cls-1" x="63.08" y="1261.84" width="63.08" height="63.08"/>
  <rect x="127.16" y="1261.84" width="63.08" height="63.08"/>
  <rect class="cls-1" x="190.23" y="1261.84" width="63.08" height="63.08"/>
  <rect class="cls-1" x="-0.5" y="1324.92" width="63.08" height="63.08"/>
  <rect x="63.08" y="1324.92" width="63.08" height="63.08"/>
  <rect class="cls-1" x="127.16" y="1324.92" width="63.08" height="63.08"/>
  <rect x="190.23" y="1324.92" width="63.08" height="63.08"/>
  <rect x="-0.5" y="1388" width="63.08" height="63.08"/>
  <rect class="cls-1" x="63.08" y="1388" width="63.08" height="63.08"/>
  <rect x="127.16" y="1388" width="63.08" height="63.08"/>
  <rect class="cls-1" x="190.23" y="1388" width="63.08" height="63.08"/>
  <rect class="cls-1" x="-0.5" y="1451.07" width="63.08" height="63.08"/>
  <rect x="63.08" y="1451.07" width="63.08" height="63.08"/>
  <rect class="cls-1" x="127.16" y="1451.07" width="63.08" height="63.08"/>
  <rect x="190.23" y="1451.07" width="63.08" height="63.08"/>
  <rect x="-0.5" y="1514.15" width="63.08" height="63.08"/>
  <rect class="cls-1" x="63.08" y="1514.15" width="63.08" height="63.08"/>
  <rect x="127.16" y="1514.15" width="63.08" height="63.08"/>
  <rect class="cls-1" x="190.23" y="1514.15" width="63.08" height="63.08"/>
  <rect class="cls-1" x="-0.5" y="1577.23" width="63.08" height="63.08"/>
  <rect x="63.08" y="1577.23" width="63.08" height="63.08"/>
  <rect class="cls-1" x="127.16" y="1577.23" width="63.08" height="63.08"/>
  <rect x="190.23" y="1577.23" width="63.08" height="63.08"/>
  <rect x="-0.5" y="1640.31" width="63.08" height="63.08"/>
  <rect class="cls-1" x="63.08" y="1640.31" width="63.08" height="63.08"/>
  <rect x="127.16" y="1640.31" width="63.08" height="63.08"/>
  <rect class="cls-1" x="190.23" y="1640.31" width="63.08" height="63.08"/>
  <rect class="cls-1" x="-0.5" y="1703.38" width="63.08" height="63.08"/>
  <rect x="63.08" y="1703.38" width="63.08" height="63.08"/>
  <rect class="cls-1" x="127.16" y="1703.38" width="63.08" height="63.08"/>
  <rect x="190.23" y="1703.38" width="63.08" height="63.08"/>
  <rect x="-0.5" y="1766.46" width="63.08" height="63.08"/>
  <rect class="cls-1" x="63.08" y="1766.46" width="63.08" height="63.08"/>
  <rect x="127.16" y="1766.46" width="63.08" height="63.08"/>
  <rect class="cls-1" x="190.23" y="1766.46" width="63.08" height="63.08"/>
  <rect class="cls-1" x="-0.5" y="1829.54" width="63.08" height="63.08"/>
  <rect x="63.08" y="1829.54" width="63.08" height="63.08"/>
  <rect class="cls-1" x="127.16" y="1829.54" width="63.08" height="63.08"/>
  <rect x="190.23" y="1829.54" width="63.08" height="63.08"/>
  <rect x="-0.5" y="1892.61" width="63.08" height="63.08"/>
  <rect class="cls-1" x="63.08" y="1892.61" width="63.08" height="63.08"/>
  <rect x="127.16" y="1892.61" width="63.08" height="63.08"/>
  <rect class="cls-1" x="190.23" y="1892.61" width="63.08" height="63.08"/>
  <rect class="cls-1" x="-0.5" y="1955.69" width="63.08" height="63.08"/>
  <rect x="63.08" y="1955.69" width="63.08" height="63.08"/>
  <rect class="cls-1" x="127.16" y="1955.69" width="63.08" height="63.08"/>
  <rect x="190.23" y="1955.69" width="63.08" height="63.08"/>
  <rect x="-0.5" y="2018.77" width="63.08" height="63.08"/>
  <rect class="cls-1" x="63.08" y="2018.77" width="63.08" height="63.08"/>
  <rect x="127.16" y="2018.77" width="63.08" height="63.08"/>
  <rect class="cls-1" x="190.23" y="2018.77" width="63.08" height="63.08"/>
  <rect x="507.62" y="2018.77" width="63.08" height="63.08"/>
  <rect x="570.7" y="1072.31" width="63.08" height="63.08"/>
  <rect class="cls-1" x="634.78" y="1072.31" width="63.08" height="63.08"/>
  <rect x="697.85" y="1072.31" width="63.08" height="63.08"/>
  <rect class="cls-1" x="760.93" y="1072.31" width="63.08" height="63.08"/>
  <rect class="cls-1" x="570.7" y="1135.39" width="63.08" height="63.08"/>
  <rect x="634.78" y="1135.39" width="63.08" height="63.08"/>
  <rect class="cls-1" x="697.85" y="1135.39" width="63.08" height="63.08"/>
  <rect x="760.93" y="1135.39" width="63.08" height="63.08"/>
  <rect x="570.7" y="1198.47" width="63.08" height="63.08"/>
  <rect class="cls-1" x="634.78" y="1198.47" width="63.08" height="63.08"/>
  <rect x="697.85" y="1198.47" width="63.08" height="63.08"/>
  <rect class="cls-1" x="760.93" y="1198.47" width="63.08" height="63.08"/>
  <rect class="cls-1" x="570.7" y="1261.54" width="63.08" height="63.08"/>
  <rect x="634.78" y="1261.54" width="63.08" height="63.08"/>
  <rect class="cls-1" x="697.85" y="1261.54" width="63.08" height="63.08"/>
  <rect x="760.93" y="1261.54" width="63.08" height="63.08"/>
  <rect x="570.7" y="1324.62" width="63.08" height="63.08"/>
  <rect class="cls-1" x="634.78" y="1324.62" width="63.08" height="63.08"/>
  <rect x="697.85" y="1324.62" width="63.08" height="63.08"/>
  <rect class="cls-1" x="760.93" y="1324.62" width="63.08" height="63.08"/>
  <rect class="cls-1" x="570.7" y="1387.7" width="63.08" height="63.08"/>
  <rect x="634.78" y="1387.7" width="63.08" height="63.08"/>
  <rect class="cls-1" x="697.85" y="1387.7" width="63.08" height="63.08"/>
  <rect x="760.93" y="1387.7" width="63.08" height="63.08"/>
  <rect x="570.7" y="1450.77" width="63.08" height="63.08"/>
  <rect class="cls-1" x="634.78" y="1450.77" width="63.08" height="63.08"/>
  <rect x="697.85" y="1450.77" width="63.08" height="63.08"/>
  <rect class="cls-1" x="760.93" y="1450.77" width="63.08" height="63.08"/>
  <rect class="cls-1" x="570.7" y="1513.85" width="63.08" height="63.08"/>
  <rect x="634.78" y="1513.85" width="63.08" height="63.08"/>
  <rect class="cls-1" x="697.85" y="1513.85" width="63.08" height="63.08"/>
  <rect x="760.93" y="1513.85" width="63.08" height="63.08"/>
  <rect x="570.7" y="1576.93" width="63.08" height="63.08"/>
  <rect class="cls-1" x="634.78" y="1576.93" width="63.08" height="63.08"/>
  <rect x="697.85" y="1576.93" width="63.08" height="63.08"/>
  <rect class="cls-1" x="760.93" y="1576.93" width="63.08" height="63.08"/>
  <rect class="cls-1" x="570.7" y="1640.01" width="63.08" height="63.08"/>
  <rect x="634.78" y="1640.01" width="63.08" height="63.08"/>
  <rect class="cls-1" x="697.85" y="1640.01" width="63.08" height="63.08"/>
  <rect x="760.93" y="1640.01" width="63.08" height="63.08"/>
  <rect x="570.7" y="1703.08" width="63.08" height="63.08"/>
  <rect class="cls-1" x="634.78" y="1703.08" width="63.08" height="63.08"/>
  <rect x="697.85" y="1703.08" width="63.08" height="63.08"/>
  <rect class="cls-1" x="760.93" y="1703.08" width="63.08" height="63.08"/>
  <rect class="cls-1" x="570.7" y="1766.16" width="63.08" height="63.08"/>
  <rect x="634.78" y="1766.16" width="63.08" height="63.08"/>
  <rect class="cls-1" x="697.85" y="1766.16" width="63.08" height="63.08"/>
  <rect x="760.93" y="1766.16" width="63.08" height="63.08"/>
  <rect x="570.7" y="1829.24" width="63.08" height="63.08"/>
  <rect class="cls-1" x="634.78" y="1829.24" width="63.08" height="63.08"/>
  <rect x="697.85" y="1829.24" width="63.08" height="63.08"/>
  <rect class="cls-1" x="760.93" y="1829.24" width="63.08" height="63.08"/>
  <rect class="cls-1" x="570.7" y="1892.31" width="63.08" height="63.08"/>
  <rect x="634.78" y="1892.31" width="63.08" height="63.08"/>
  <rect class="cls-1" x="697.85" y="1892.31" width="63.08" height="63.08"/>
  <rect x="760.93" y="1892.31" width="63.08" height="63.08"/>
  <rect x="570.7" y="1955.39" width="63.08" height="63.08"/>
  <rect class="cls-1" x="634.78" y="1955.39" width="63.08" height="63.08"/>
  <rect x="697.85" y="1955.39" width="63.08" height="63.08"/>
  <rect class="cls-1" x="760.93" y="1955.39" width="63.08" height="63.08"/>
  <rect class="cls-1" x="570.7" y="2018.47" width="63.08" height="63.08"/>
  <rect x="634.78" y="2018.47" width="63.08" height="63.08"/>
  <rect class="cls-1" x="697.85" y="2018.47" width="63.08" height="63.08"/>
  <rect x="760.93" y="2018.47" width="63.08" height="63.08"/>
  <rect x="824.01" y="1072.31" width="63.08" height="63.08"/>
  <rect class="cls-1" x="887.09" y="1072.31" width="63.08" height="63.08"/>
  <rect class="cls-1" x="824.01" y="1135.39" width="63.08" height="63.08"/>
  <rect x="887.09" y="1135.39" width="63.08" height="63.08"/>
  <rect x="824.01" y="1198.47" width="63.08" height="63.08"/>
  <rect class="cls-1" x="887.09" y="1198.47" width="63.08" height="63.08"/>
  <rect class="cls-1" x="824.01" y="1261.54" width="63.08" height="63.08"/>
  <rect x="887.09" y="1261.54" width="63.08" height="63.08"/>
  <rect x="824.01" y="1324.62" width="63.08" height="63.08"/>
  <rect class="cls-1" x="887.09" y="1324.62" width="63.08" height="63.08"/>
  <rect class="cls-1" x="824.01" y="1387.7" width="63.08" height="63.08"/>
  <rect x="887.09" y="1387.7" width="63.08" height="63.08"/>
  <rect x="824.01" y="1450.77" width="63.08" height="63.08"/>
  <rect class="cls-1" x="887.09" y="1450.77" width="63.08" height="63.08"/>
  <rect class="cls-1" x="824.01" y="1513.85" width="63.08" height="63.08"/>
  <rect x="887.09" y="1513.85" width="63.08" height="63.08"/>
  <rect x="824.01" y="1576.93" width="63.08" height="63.08"/>
  <rect class="cls-1" x="887.09" y="1576.93" width="63.08" height="63.08"/>
  <rect class="cls-1" x="824.01" y="1640.01" width="63.08" height="63.08"/>
  <rect x="887.09" y="1640.01" width="63.08" height="63.08"/>
  <rect x="824.01" y="1703.08" width="63.08" height="63.08"/>
  <rect class="cls-1" x="887.09" y="1703.08" width="63.08" height="63.08"/>
  <rect class="cls-1" x="824.01" y="1766.16" width="63.08" height="63.08"/>
  <rect x="887.09" y="1766.16" width="63.08" height="63.08"/>
  <rect x="824.01" y="1829.24" width="63.08" height="63.08"/>
  <rect class="cls-1" x="887.09" y="1829.24" width="63.08" height="63.08"/>
  <rect class="cls-1" x="824.01" y="1892.31" width="63.08" height="63.08"/>
  <rect x="887.09" y="1892.31" width="63.08" height="63.08"/>
  <rect x="824.01" y="1955.39" width="63.08" height="63.08"/>
  <rect class="cls-1" x="887.09" y="1955.39" width="63.08" height="63.08"/>
  <rect class="cls-1" x="824.01" y="2018.47" width="63.08" height="63.08"/>
  <rect x="887.09" y="2018.47" width="63.08" height="63.08"/>
  <rect x="950.16" y="1072.31" width="63.08" height="63.08"/>
  <rect class="cls-1" x="1013.24" y="1072.31" width="63.08" height="63.08"/>
  <rect class="cls-1" x="950.16" y="1135.39" width="63.08" height="63.08"/>
  <rect x="1013.24" y="1135.39" width="63.08" height="63.08"/>
  <rect x="950.16" y="1198.47" width="63.08" height="63.08"/>
  <rect class="cls-1" x="1013.24" y="1198.47" width="63.08" height="63.08"/>
  <rect class="cls-1" x="950.16" y="1261.54" width="63.08" height="63.08"/>
  <rect x="1013.24" y="1261.54" width="63.08" height="63.08"/>
  <rect x="950.16" y="1324.62" width="63.08" height="63.08"/>
  <rect class="cls-1" x="1013.24" y="1324.62" width="63.08" height="63.08"/>
  <rect class="cls-1" x="950.16" y="1387.7" width="63.08" height="63.08"/>
  <rect x="1013.24" y="1387.7" width="63.08" height="63.08"/>
  <rect x="950.16" y="1450.77" width="63.08" height="63.08"/>
  <rect class="cls-1" x="1013.24" y="1450.77" width="63.08" height="63.08"/>
  <rect class="cls-1" x="950.16" y="1513.85" width="63.08" height="63.08"/>
  <rect x="1013.24" y="1513.85" width="63.08" height="63.08"/>
  <rect x="950.16" y="1576.93" width="63.08" height="63.08"/>
  <rect class="cls-1" x="1013.24" y="1576.93" width="63.08" height="63.08"/>
  <rect class="cls-1" x="950.16" y="1640.01" width="63.08" height="63.08"/>
  <rect x="1013.24" y="1640.01" width="63.08" height="63.08"/>
  <rect x="950.16" y="1703.08" width="63.08" height="63.08"/>
  <rect class="cls-1" x="1013.24" y="1703.08" width="63.08" height="63.08"/>
  <rect class="cls-1" x="950.16" y="1766.16" width="63.08" height="63.08"/>
  <rect x="1013.24" y="1766.16" width="63.08" height="63.08"/>
  <rect x="950.16" y="1829.24" width="63.08" height="63.08"/>
  <rect class="cls-1" x="1013.24" y="1829.24" width="63.08" height="63.08"/>
  <rect class="cls-1" x="950.16" y="1892.31" width="63.08" height="63.08"/>
  <rect x="1013.24" y="1892.31" width="63.08" height="63.08"/>
  <rect x="950.16" y="1955.39" width="63.08" height="63.08"/>
  <rect class="cls-1" x="1013.24" y="1955.39" width="63.08" height="63.08"/>
  <rect class="cls-1" x="950.16" y="2018.47" width="63.08" height="63.08"/>
  <rect x="1013.24" y="2018.47" width="63.08" height="63.08"/>
  <rect class="cls-1" x="1076.32" width="63.08" height="63.08"/>
  <rect x="1139.39" width="63.08" height="63.08"/>
  <rect x="1076.32" y="63.08" width="63.08" height="63.08"/>
  <rect class="cls-1" x="1139.39" y="63.08" width="63.08" height="63.08"/>
  <rect class="cls-1" x="1076.32" y="126.15" width="63.08" height="63.08"/>
  <rect x="1139.39" y="126.15" width="63.08" height="63.08"/>
  <rect x="1076.32" y="189.23" width="63.08" height="63.08"/>
  <rect class="cls-1" x="1139.39" y="189.23" width="63.08" height="63.08"/>
  <rect class="cls-1" x="1076.32" y="252.31" width="63.08" height="63.08"/>
  <rect x="1139.39" y="252.31" width="63.08" height="63.08"/>
  <rect x="1076.32" y="315.39" width="63.08" height="63.08"/>
  <rect class="cls-1" x="1139.39" y="315.39" width="63.08" height="63.08"/>
  <rect class="cls-1" x="1076.32" y="378.46" width="63.08" height="63.08"/>
  <rect x="1139.39" y="378.46" width="63.08" height="63.08"/>
  <rect x="1076.32" y="441.54" width="63.08" height="63.08"/>
  <rect class="cls-1" x="1139.39" y="441.54" width="63.08" height="63.08"/>
  <rect class="cls-1" x="1076.32" y="504.62" width="63.08" height="63.08"/>
  <rect x="1139.39" y="504.62" width="63.08" height="63.08"/>
  <rect x="1076.32" y="567.69" width="63.08" height="63.08"/>
  <rect class="cls-1" x="1139.39" y="567.69" width="63.08" height="63.08"/>
  <rect class="cls-1" x="1076.32" y="630.77" width="63.08" height="63.08"/>
  <rect x="1139.39" y="630.77" width="63.08" height="63.08"/>
  <rect x="1076.32" y="693.85" width="63.08" height="63.08"/>
  <rect class="cls-1" x="1139.39" y="693.85" width="63.08" height="63.08"/>
  <rect class="cls-1" x="1076.32" y="756.93" width="63.08" height="63.08"/>
  <rect x="1139.39" y="756.93" width="63.08" height="63.08"/>
  <rect x="1076.32" y="820" width="63.08" height="63.08"/>
  <rect class="cls-1" x="1139.39" y="820" width="63.08" height="63.08"/>
  <rect class="cls-1" x="1076.32" y="883.08" width="63.08" height="63.08"/>
  <rect x="1139.39" y="883.08" width="63.08" height="63.08"/>
  <rect x="1076.32" y="946.16" width="63.08" height="63.08"/>
  <rect class="cls-1" x="1139.39" y="946.16" width="63.08" height="63.08"/>
  <rect class="cls-1" x="1076.32" y="1009.23" width="63.08" height="63.08"/>
  <rect x="1139.39" y="1009.23" width="63.08" height="63.08"/>
  <rect class="cls-1" x="1202.47" width="63.08" height="63.08"/>
  <rect x="1202.47" y="63.08" width="63.08" height="63.08"/>
  <rect class="cls-1" x="1202.47" y="126.15" width="63.08" height="63.08"/>
  <rect x="1202.47" y="189.23" width="63.08" height="63.08"/>
  <rect class="cls-1" x="1202.47" y="252.31" width="63.08" height="63.08"/>
  <rect x="1202.47" y="315.39" width="63.08" height="63.08"/>
  <rect class="cls-1" x="1202.47" y="378.46" width="63.08" height="63.08"/>
  <rect x="1202.47" y="441.54" width="63.08" height="63.08"/>
  <rect class="cls-1" x="1202.47" y="504.62" width="63.08" height="63.08"/>
  <rect x="1202.47" y="567.69" width="63.08" height="63.08"/>
  <rect class="cls-1" x="1202.47" y="630.77" width="63.08" height="63.08"/>
  <rect x="1202.47" y="693.85" width="63.08" height="63.08"/>
  <rect class="cls-1" x="1202.47" y="756.93" width="63.08" height="63.08"/>
  <rect x="1202.47" y="820" width="63.08" height="63.08"/>
  <rect class="cls-1" x="1202.47" y="883.08" width="63.08" height="63.08"/>
  <rect x="1202.47" y="946.16" width="63.08" height="63.08"/>
  <rect class="cls-1" x="1202.47" y="1009.23" width="63.08" height="63.08"/>
  <rect x="1076.32" y="1072.31" width="63.08" height="63.08"/>
  <rect class="cls-1" x="1139.39" y="1072.31" width="63.08" height="63.08"/>
  <rect class="cls-1" x="1076.32" y="1135.39" width="63.08" height="63.08"/>
  <rect x="1139.39" y="1135.39" width="63.08" height="63.08"/>
  <rect x="1076.32" y="1198.47" width="63.08" height="63.08"/>
  <rect class="cls-1" x="1139.39" y="1198.47" width="63.08" height="63.08"/>
  <rect class="cls-1" x="1076.32" y="1261.54" width="63.08" height="63.08"/>
  <rect x="1139.39" y="1261.54" width="63.08" height="63.08"/>
  <rect x="1076.32" y="1324.62" width="63.08" height="63.08"/>
  <rect class="cls-1" x="1139.39" y="1324.62" width="63.08" height="63.08"/>
  <rect class="cls-1" x="1076.32" y="1387.7" width="63.08" height="63.08"/>
  <rect x="1139.39" y="1387.7" width="63.08" height="63.08"/>
  <rect x="1076.32" y="1450.77" width="63.08" height="63.08"/>
  <rect class="cls-1" x="1139.39" y="1450.77" width="63.08" height="63.08"/>
  <rect class="cls-1" x="1076.32" y="1513.85" width="63.08" height="63.08"/>
  <rect x="1139.39" y="1513.85" width="63.08" height="63.08"/>
  <rect x="1076.32" y="1576.93" width="63.08" height="63.08"/>
  <rect class="cls-1" x="1139.39" y="1576.93" width="63.08" height="63.08"/>
  <rect class="cls-1" x="1076.32" y="1640.01" width="63.08" height="63.08"/>
  <rect x="1139.39" y="1640.01" width="63.08" height="63.08"/>
  <rect x="1076.32" y="1703.08" width="63.08" height="63.08"/>
  <rect class="cls-1" x="1139.39" y="1703.08" width="63.08" height="63.08"/>
  <rect class="cls-1" x="1076.32" y="1766.16" width="63.08" height="63.08"/>
  <rect x="1139.39" y="1766.16" width="63.08" height="63.08"/>
  <rect x="1076.32" y="1829.24" width="63.08" height="63.08"/>
  <rect class="cls-1" x="1139.39" y="1829.24" width="63.08" height="63.08"/>
  <rect class="cls-1" x="1076.32" y="1892.31" width="63.08" height="63.08"/>
  <rect x="1139.39" y="1892.31" width="63.08" height="63.08"/>
  <rect x="1076.32" y="1955.39" width="63.08" height="63.08"/>
  <rect class="cls-1" x="1139.39" y="1955.39" width="63.08" height="63.08"/>
  <rect class="cls-1" x="1076.32" y="2018.47" width="63.08" height="63.08"/>
  <rect x="1139.39" y="2018.47" width="63.08" height="63.08"/>
  <rect x="1202.47" y="1072.31" width="63.08" height="63.08"/>
  <rect class="cls-1" x="1202.47" y="1135.39" width="63.08" height="63.08"/>
  <rect x="1202.47" y="1198.47" width="63.08" height="63.08"/>
  <rect class="cls-1" x="1202.47" y="1261.54" width="63.08" height="63.08"/>
  <rect x="1202.47" y="1324.62" width="63.08" height="63.08"/>
  <rect class="cls-1" x="1202.47" y="1387.7" width="63.08" height="63.08"/>
  <rect x="1202.47" y="1450.77" width="63.08" height="63.08"/>
  <rect class="cls-1" x="1202.47" y="1513.85" width="63.08" height="63.08"/>
  <rect x="1202.47" y="1576.93" width="63.08" height="63.08"/>
  <rect class="cls-1" x="1202.47" y="1640.01" width="63.08" height="63.08"/>
  <rect x="1202.47" y="1703.08" width="63.08" height="63.08"/>
  <rect class="cls-1" x="1202.47" y="1766.16" width="63.08" height="63.08"/>
  <rect x="1202.47" y="1829.24" width="63.08" height="63.08"/>
  <rect class="cls-1" x="1202.47" y="1892.31" width="63.08" height="63.08"/>
  <rect x="1202.47" y="1955.39" width="63.08" height="63.08"/>
  <rect class="cls-1" x="1202.47" y="2018.47" width="63.08" height="63.08"/>
  <rect class="cls-1" x="253.81" y="2081.85" width="63.08" height="63.08"/>
  <rect x="317.39" y="2081.85" width="63.08" height="63.08"/>
  <rect class="cls-1" x="381.47" y="2081.85" width="63.08" height="63.08"/>
  <rect x="444.54" y="2081.85" width="63.08" height="63.08"/>
  <rect class="cls-1" x="507.62" y="2081.85" width="63.08" height="63.08"/>
  <rect x="253.81" y="2144.92" width="63.08" height="63.08"/>
  <rect class="cls-1" x="317.39" y="2144.92" width="63.08" height="63.08"/>
  <rect x="381.47" y="2144.92" width="63.08" height="63.08"/>
  <rect class="cls-1" x="444.54" y="2144.92" width="63.08" height="63.08"/>
  <rect class="cls-1" x="-0.5" y="2081.85" width="63.08" height="63.08"/>
  <rect x="63.08" y="2081.85" width="63.08" height="63.08"/>
  <rect class="cls-1" x="127.16" y="2081.85" width="63.08" height="63.08"/>
  <rect x="190.23" y="2081.85" width="63.08" height="63.08"/>
  <rect x="-0.5" y="2144.92" width="63.08" height="63.08"/>
  <rect class="cls-1" x="63.08" y="2144.92" width="63.08" height="63.08"/>
  <rect x="127.16" y="2144.92" width="63.08" height="63.08"/>
  <rect class="cls-1" x="190.23" y="2144.92" width="63.08" height="63.08"/>
  <rect x="507.62" y="2144.92" width="63.08" height="63.08"/>
  <rect x="570.7" y="2081.55" width="63.08" height="63.08"/>
  <rect class="cls-1" x="634.78" y="2081.55" width="63.08" height="63.08"/>
  <rect x="697.85" y="2081.55" width="63.08" height="63.08"/>
  <rect class="cls-1" x="760.93" y="2081.55" width="63.08" height="63.08"/>
  <rect class="cls-1" x="570.7" y="2144.62" width="63.08" height="63.08"/>
  <rect x="634.78" y="2144.62" width="63.08" height="63.08"/>
  <rect class="cls-1" x="697.85" y="2144.62" width="63.08" height="63.08"/>
  <rect x="760.93" y="2144.62" width="63.08" height="63.08"/>
  <rect x="824.01" y="2081.55" width="63.08" height="63.08"/>
  <rect class="cls-1" x="887.09" y="2081.55" width="63.08" height="63.08"/>
  <rect class="cls-1" x="824.01" y="2144.62" width="63.08" height="63.08"/>
  <rect x="887.09" y="2144.62" width="63.08" height="63.08"/>
  <rect x="950.16" y="2081.55" width="63.08" height="63.08"/>
  <rect class="cls-1" x="1013.24" y="2081.55" width="63.08" height="63.08"/>
  <rect class="cls-1" x="950.16" y="2144.62" width="63.08" height="63.08"/>
  <rect x="1013.24" y="2144.62" width="63.08" height="63.08"/>
  <rect x="1076.32" y="2081.55" width="63.08" height="63.08"/>
  <rect class="cls-1" x="1139.39" y="2081.55" width="63.08" height="63.08"/>
  <rect class="cls-1" x="1076.32" y="2144.62" width="63.08" height="63.08"/>
  <rect x="1139.39" y="2144.62" width="63.08" height="63.08"/>
  <rect x="1202.47" y="2081.55" width="63.08" height="63.08"/>
  <rect class="cls-1" x="1202.47" y="2144.62" width="63.08" height="63.08"/>
</svg>
